<svg xmlns="http://www.w3.org/2000/svg" width="150" height="80" viewBox="0 0 150 80">
  <g id="Group_24" data-name="Group 24" transform="translate(6254 6033)">
    <g id="Rectangle_5" data-name="Rectangle 5" transform="translate(-6254 -6033)" fill="#fff" stroke="#3c4043" stroke-width="3">
      <rect width="150" height="80" rx="40" stroke="none"/>
      <rect x="1.5" y="1.5" width="147" height="77" rx="38.5" fill="none"/>
    </g>
    <g id="Group_23" data-name="Group 23" transform="translate(-30.693 -84.865)">
      <path id="Path_30" data-name="Path 30" d="M31.734,14.71V25.258h6.491a5.351,5.351,0,0,0,5.409-5.274,5.409,5.409,0,0,0-5.409-5.274Zm0,14.257V41.2H27.87V11h10.2a9.215,9.215,0,0,1,6.665,2.627,8.674,8.674,0,0,1,0,12.77,9.254,9.254,0,0,1-6.665,2.569Zm19.859,5.911a3.13,3.13,0,0,0,1.275,2.531,4.772,4.772,0,0,0,3.033,1A6.163,6.163,0,0,0,60.267,36.6a5.66,5.66,0,0,0,1.932-4.25,7.9,7.9,0,0,0-5.061-1.43,6.433,6.433,0,0,0-3.864,1.14,3.361,3.361,0,0,0-1.681,2.82m5.023-15.01a9.659,9.659,0,0,1,6.8,2.3A8.133,8.133,0,0,1,65.85,28.5v12.75H62.122v-2.9h-.155a7.418,7.418,0,0,1-6.414,3.535,8.481,8.481,0,0,1-5.8-1.932,6.53,6.53,0,0,1-2.3-5.081,6.163,6.163,0,0,1,2.434-5.1,10.277,10.277,0,0,1,6.472-1.932,11.359,11.359,0,0,1,5.8,1.275v-.889a4.385,4.385,0,0,0-1.6-3.439,5.448,5.448,0,0,0-3.748-1.41,5.969,5.969,0,0,0-5.216,2.7l-3.419-2.164a9.524,9.524,0,0,1,8.365-4.038m30.62.657L74.215,50.3h-3.98l4.83-10.432L66.526,20.506h4.25l6.182,14.837h.077l5.989-14.837h4.211Z" transform="translate(-6182.904 -5933.79)" fill="#3c4043"/>
      <path id="Path_31" data-name="Path 31" d="M29.745,20.645a20.96,20.96,0,0,0-.29-3.535H13.15v6.684h9.369a8.017,8.017,0,0,1-3.593,5.274v4.347h5.6a16.981,16.981,0,0,0,5.158-12.77" transform="translate(-6196.621 -5928.095)" fill="#4285f4"/>
      <path id="Path_32" data-name="Path 32" d="M20.6,34.495A16.653,16.653,0,0,0,32.2,30.3l-5.8-4.347a10.548,10.548,0,0,1-5.8,1.661,10.374,10.374,0,0,1-9.659-7.167H5.15v4.482A17.387,17.387,0,0,0,20.6,34.495" transform="translate(-6204.076 -5924.982)" fill="#34a853"/>
      <path id="Path_33" data-name="Path 33" d="M11.746,25.808a10.509,10.509,0,0,1-.541-3.323,10.683,10.683,0,0,1,.541-3.226V14.7H5.95a17.387,17.387,0,0,0,0,15.59Z" transform="translate(-6205.05 -5930.34)" fill="#f8bb16"/>
      <path id="Path_34" data-name="Path 34" d="M20.6,16.655a9.466,9.466,0,0,1,6.665,2.589h0L32.2,14.221A16.749,16.749,0,0,0,20.6,9.7,17.387,17.387,0,0,0,5.15,19.36l5.8,4.443A10.355,10.355,0,0,1,20.6,16.655" transform="translate(-6204.076 -5935)" fill="#ea4335"/>
    </g>
  </g>
</svg>
